<?xml version="1.0" standalone="no"?>
<!DOCTYPE svg PUBLIC "-//W3C//DTD SVG 20010904//EN"
 "http://www.w3.org/TR/2001/REC-SVG-20010904/DTD/svg10.dtd">
<svg version="1.0" xmlns="http://www.w3.org/2000/svg"
 width="512.000000pt" height="512.000000pt" viewBox="0 0 512.000000 512.000000"
 preserveAspectRatio="xMidYMid meet">
<metadata>
Created by potrace 1.14, written by Peter Selinger 2001-2017
</metadata>
<g transform="translate(0.000000,512.000000) scale(0.100000,-0.100000)"
fill="#000000" stroke="none">
<path d="M3470 4460 c-23 -18 -25 -26 -28 -123 -4 -127 9 -162 62 -172 40 -8
81 14 90 48 12 45 6 198 -9 226 -22 44 -74 53 -115 21z"/>
<path d="M1049 4219 c-68 -51 -126 -93 -128 -96 -3 -2 75 -83 172 -181 l177
-177 -355 -3 c-334 -2 -361 -1 -438 19 -45 11 -89 22 -97 24 -17 3 -95 23
-122 31 -17 5 -18 -7 -18 -156 0 -149 1 -161 18 -156 9 3 81 21 159 41 121 30
159 35 255 35 l114 0 38 -117 c21 -65 42 -122 45 -126 4 -4 106 42 227 103
120 60 225 110 232 110 8 0 11 -10 8 -27 -3 -16 -8 -50 -11 -78 -3 -27 -10
-84 -16 -125 -13 -93 -16 -115 -23 -165 -3 -22 -8 -57 -11 -77 -3 -22 -1 -38
5 -38 6 0 6 -9 1 -22 -5 -13 -11 -41 -15 -63 -14 -94 -34 -211 -52 -305 -2
-14 -7 -41 -10 -60 -2 -19 -8 -48 -11 -65 -3 -16 -7 -40 -9 -52 -1 -12 -5 -34
-8 -50 -3 -15 -8 -44 -11 -63 -3 -19 -12 -71 -20 -115 -8 -44 -17 -96 -20
-115 -3 -19 -14 -84 -25 -145 -10 -60 -21 -123 -24 -140 -3 -16 -10 -57 -16
-90 -6 -33 -13 -76 -16 -95 -3 -19 -8 -38 -10 -41 -2 -3 -15 -64 -29 -135 -14
-71 -30 -150 -36 -176 l-11 -48 -119 0 -119 0 0 125 c0 149 -11 180 -64 190
-40 8 -81 -14 -90 -48 -3 -12 -6 -76 -6 -142 l0 -120 -31 -14 c-36 -16 -49
-45 -49 -112 0 -48 -2 -50 -43 -75 -80 -49 -124 -138 -113 -230 l6 -54 -57 0
c-78 -1 -108 -23 -108 -79 0 -26 7 -47 18 -58 17 -17 138 -18 2370 -20 2300
-3 2353 -2 2377 16 19 15 25 29 25 60 0 68 -16 75 -161 79 l-126 4 6 61 c4 41
13 68 26 82 16 17 20 35 20 99 0 76 1 77 22 71 28 -8 47 -31 55 -65 13 -54 32
-79 67 -85 76 -15 111 49 82 148 -13 44 -27 65 -66 100 -50 45 -122 73 -168
65 -11 -2 -32 8 -46 21 -26 24 -26 27 -26 166 l0 141 48 22 c85 39 145 106
176 196 13 42 16 87 13 275 -2 218 -3 228 -27 276 -71 143 -237 217 -381 170
-92 -30 -158 -87 -202 -175 -21 -42 -22 -59 -24 -275 -2 -252 2 -281 58 -362
32 -45 95 -94 144 -110 l30 -10 3 -126 3 -127 -154 0 c-144 0 -156 1 -183 22
-49 38 -59 59 -64 142 l-5 79 -235 78 c-129 43 -236 79 -237 79 -2 0 -3 54 -3
120 l0 120 81 0 c58 0 89 5 110 17 38 23 55 65 42 107 -9 31 -278 469 -311
509 -9 9 -38 30 -66 45 -28 16 -237 137 -464 270 -228 133 -424 242 -436 242
-12 0 -26 -4 -31 -9 -6 -5 -80 -49 -165 -98 -85 -50 -264 -153 -397 -231 -326
-191 -313 -184 -314 -169 0 6 -2 21 -3 32 -2 11 -6 44 -10 74 -4 30 -9 61 -11
70 -1 9 -6 41 -9 71 -4 30 -16 102 -26 160 -11 58 -21 121 -24 140 -11 76 -17
117 -26 170 -5 30 -12 78 -16 105 -3 28 -7 55 -8 60 -2 18 3 16 337 -144 70
-33 129 -61 132 -61 4 0 95 279 95 292 0 8 -85 27 -195 43 -41 6 -95 15 -130
22 -11 2 -38 6 -60 9 -80 12 -110 20 -110 31 0 10 97 115 313 340 l31 31 -119
86 c-66 48 -125 89 -132 91 -9 4 -43 -53 -100 -162 -136 -263 -142 -276 -153
-276 -5 0 -44 62 -85 139 -42 76 -95 175 -119 219 -24 44 -44 81 -45 82 -2 2
-58 -38 -127 -88z m405 -1286 c3 -16 8 -52 11 -80 l7 -53 -36 0 c-20 0 -36 1
-36 3 0 9 22 124 26 140 8 26 22 21 28 -10z m50 -365 c9 -63 8 -68 -21 -115
l-30 -48 -62 -3 c-59 -3 -61 -2 -58 20 3 13 12 67 22 121 l18 98 61 -3 61 -3
9 -67z m-181 -373 c-15 -24 -29 -43 -30 -41 -2 2 -1 22 3 45 6 34 10 41 30 41
l24 0 -27 -45z m-29 -143 c11 -35 59 -52 145 -52 l81 0 0 -40 0 -40 -136 0
-136 0 6 38 c3 20 8 46 10 57 3 11 5 28 5 38 1 22 18 22 25 -1z m226 -357 l0
-64 -25 24 c-23 24 -29 25 -155 25 -141 0 -139 -1 -124 58 6 22 9 22 155 22
l149 0 0 -65z m2604 -802 c3 -92 3 -93 -20 -93 l-24 0 0 132 0 132 20 -39 c15
-30 21 -64 24 -132z m273 72 l83 0 0 -82 0 -83 -123 0 -124 0 8 58 c19 129 17
123 47 115 15 -5 64 -8 109 -8z m-3482 -27 c-2 -13 -6 -41 -10 -63 -10 -73
-12 -75 -63 -75 l-47 0 -1 80 0 80 62 0 c59 0 62 -1 59 -22z m170 -101 c5 -29
3 -37 -9 -37 -17 0 -22 34 -10 65 9 21 12 16 19 -28z"/>
<path d="M3015 4265 c-45 -44 -35 -77 48 -162 56 -58 80 -75 109 -79 30 -5 41
-2 62 19 17 17 26 37 26 59 0 27 -12 45 -79 110 -90 88 -122 98 -166 53z"/>
<path d="M3857 4210 c-77 -77 -80 -80 -74 -117 8 -45 38 -73 80 -73 24 0 45
15 109 79 88 90 99 121 53 166 -45 46 -78 36 -168 -55z"/>
<path d="M3455 3993 c-41 -10 -103 -58 -134 -103 -65 -95 -50 -221 35 -300 50
-46 79 -60 146 -67 130 -14 258 103 258 237 0 152 -153 269 -305 233z"/>
<path d="M2838 3824 c-32 -17 -44 -52 -31 -91 14 -42 46 -53 161 -53 88 0 105
3 122 20 41 41 33 112 -15 130 -41 16 -205 12 -237 -6z"/>
<path d="M3950 3820 c-41 -41 -33 -112 15 -130 44 -17 212 -12 240 6 31 20 40
64 21 102 -19 37 -37 42 -158 42 -84 0 -101 -3 -118 -20z"/>
<path d="M4233 3503 c-44 -15 -133 -102 -133 -129 0 -9 -11 -14 -32 -14 -27 0
-45 12 -98 65 -81 80 -123 93 -164 52 -28 -28 -35 -76 -13 -99 6 -8 32 -35 56
-60 l44 -46 -23 -37 c-27 -44 -35 -132 -17 -190 6 -21 31 -59 55 -86 68 -75
88 -79 452 -79 389 0 410 5 488 122 23 35 27 52 27 112 0 116 -60 202 -161
232 -29 8 -68 28 -88 43 -20 16 -56 34 -82 40 -25 6 -58 23 -72 37 -31 28
-109 54 -161 53 -20 0 -55 -7 -78 -16z"/>
<path d="M3145 3491 c-11 -5 -50 -41 -87 -80 -77 -81 -88 -119 -45 -159 45
-42 81 -31 164 51 58 56 75 80 79 109 11 62 -48 104 -111 79z"/>
<path d="M3470 3340 c-24 -18 -25 -23 -25 -139 0 -140 8 -156 76 -156 64 0 79
27 79 148 0 108 -14 150 -52 161 -37 9 -51 7 -78 -14z"/>
</g>
</svg>
